<svg xmlns="http://www.w3.org/2000/svg" viewBox="0 0 283.44 283.44"><title>Sudoku_LogoRecurso 8</title><g id="Capa_2" data-name="Capa 2"><g id="Sudoku"><rect width="94.48" height="94.48" style="fill:#f8f7f7"/><rect x="94.48" width="94.48" height="94.48" style="fill:#efefef"/><rect x="188.96" width="94.48" height="94.48" style="fill:#f8f7f7"/><rect y="94.48" width="94.48" height="94.48" style="fill:#efefef"/><rect x="94.48" y="188.96" width="94.48" height="94.48" style="fill:#efefef"/><rect x="94.48" y="94.48" width="94.48" height="94.48" style="fill:#f8f7f7"/><rect x="188.96" y="94.48" width="94.48" height="94.48" style="fill:#dbdbdb"/><rect y="188.96" width="94.48" height="94.48" style="fill:#dbdbdb"/><rect width="94.48" height="94.48" style="fill:#f9c358"/><rect x="188.96" y="188.96" width="94.48" height="94.48" style="fill:#f8f7f7"/><text transform="translate(23 77.88)" style="font-size:88px;fill:#1d1d1b;font-family:NotoSans-BoldItalic, Noto Sans;font-weight:700;font-style:italic">7</text><path d="M44.56,266.84l2.72-13H21.94l2-10L57.05,204H70.43l-8.36,39.51h7.3l-2.2,10.29h-7.3l-2.73,13Zm-8.45-23.32H49.48L52,232.87q.52-2.3,1.19-4.93t1.32-4.88c.44-1.5.77-2.6,1-3.3H55q-1,1.67-2.47,3.78t-3,4Z" style="fill:#1d1d1b"/><text transform="translate(211.95 172.36)" style="font-size:88px;fill:#1d1d1b;font-family:NotoSans-BoldItalic, Noto Sans;font-weight:700;font-style:italic">1</text><path d="M234.13,267.72q-9.06,0-13.73-5.46t-4.66-15.57a56,56,0,0,1,1.67-13.6,53.48,53.48,0,0,1,4.79-12.54,37,37,0,0,1,7.44-9.77,29.15,29.15,0,0,1,9.68-5.81A37.1,37.1,0,0,1,251.91,203a40.4,40.4,0,0,1,5.32.35,36.63,36.63,0,0,1,4.27.79l-2.2,10.56a31,31,0,0,0-3.83-.75,33,33,0,0,0-4.36-.3q-8.79,0-13.9,4.88t-7.74,14.56h.35a18.83,18.83,0,0,1,5.45-5.1,14.71,14.71,0,0,1,7.92-2q6.51,0,10.3,4t3.78,11.88a33.71,33.71,0,0,1-1.1,8.14,27,27,0,0,1-3.74,8.45,21,21,0,0,1-7.08,6.6A22,22,0,0,1,234.13,267.72Zm.61-10.65a7.31,7.31,0,0,0,5.37-2.11,13.16,13.16,0,0,0,3.17-5.37,21.37,21.37,0,0,0,1.06-6.69,7.61,7.61,0,0,0-1.45-4.88,5.27,5.27,0,0,0-4.36-1.81,8.5,8.5,0,0,0-4.58,1.32,11.9,11.9,0,0,0-3.47,3.26,9.7,9.7,0,0,0-1.72,4,18.47,18.47,0,0,0-.26,2q-.09,1-.09,2a10.17,10.17,0,0,0,1.67,6A5.38,5.38,0,0,0,234.74,257.07Z" style="fill:#1d1d1b"/></g></g></svg>